<svg aria-hidden="true" style="position: absolute; width: 0; height: 0; overflow: hidden;" version="1.1" xmlns="http://www.w3.org/2000/svg" xmlns:xlink="http://www.w3.org/1999/xlink">
<defs>

<symbol id="icon-document-edit" viewBox="0 0 32 32">
<path d="M27.625 9.375l-2.438 2.438-5-5 2.438-2.438q0.375-0.375 0.938-0.375t0.938 0.375l3.125 3.125q0.375 0.375 0.375 0.938t-0.375 0.938zM4 23l14.75-14.75 5 5-14.75 14.75h-5v-5z"></path>
</symbol>
<symbol id="icon-trash" viewBox="0 0 32 32">
<path d="M25.313 5.313v2.688h-18.625v-2.688h4.625l1.375-1.313h6.625l1.375 1.313h4.625zM8 25.313v-16h16v16q0 1.063-0.813 1.875t-1.875 0.813h-10.625q-1.063 0-1.875-0.813t-0.813-1.875z"></path>
</symbol>
</defs>
</svg>
